<svg id="Layer_1" enable-background="new 0 0 512 512" height="512" viewBox="0 0 512 512" width="512" xmlns="http://www.w3.org/2000/svg"><g><path d="m187.055 139.284h137.891v37.469h-137.891z"/><path d="m220.612 109.284h70.777c15.714-11.358 24.98-29.354 24.98-48.916-.001-33.287-27.082-60.368-60.369-60.368s-60.368 27.081-60.368 60.368c0 19.562 9.265 37.558 24.98 48.916z"/><path d="m396.886 450.327h-281.772l-21.828 25.54v36.133h325.428v-36.133z"/><path d="m123.202 382.858h265.596v37.469h-265.596z"/><path d="m330.955 346.499c-18.563-43.49-27.976-89.519-27.976-136.806v-2.94h-93.959v2.94c0 47.287-9.412 93.315-27.976 136.806l-2.714 6.359h155.339z"/></g></svg>