<?xml version="1.0"?>
<svg xmlns="http://www.w3.org/2000/svg" id="Capa_1" enable-background="new 0 0 456 456" height="512px" viewBox="0 0 456 456" width="512px" class=""><g><g><path d="m413.756 201.442h-185.192l83.43-136.323c-6.594-4.044-10.994-11.317-10.994-19.619 0-12.703 10.297-23 23-23s23 10.297 23 23c0 8.523-4.64 15.958-11.528 19.931zm-185.192 0h-1.127l.564.921zm-73.564-155.942c0-12.703-10.297-23-23-23s-23 10.297-23 23c0 8.523 4.64 15.958 11.528 19.931l-78.284 136.011h185.192l-83.43-136.323c6.594-4.044 10.994-11.317 10.994-19.619z" fill="#ffda8f" data-original="#FFDA8F" class="" style="fill:#000000" data-old_color="#ffda8f"/><path d="m423 22.5c-12.703 0-23 10.297-23 23 0 8.549 4.668 16.003 11.59 19.967l-72.59 127.033-97.141-128.646c5.552-4.199 9.141-10.856 9.141-18.354 0-12.703-10.297-23-23-23s-23 10.297-23 23c0 7.498 3.589 14.155 9.141 18.354l-97.141 128.646-72.59-127.033c6.922-3.964 11.59-11.418 11.59-19.967 0-12.703-10.297-23-23-23s-23 10.297-23 23 10.297 23 23 23c.457 0 .91-.017 1.361-.043l21.639 365.043h344l21.639-365.043c.451.026.904.043 1.361.043 12.703 0 23-10.297 23-23s-10.297-23-23-23z" fill="#ffe6b4" data-original="#FFE6B4" class="" style="fill:#000000" data-old_color="#ffe6b4"/><path d="m228 316.842-39.376-62 39.376-62 39.376 62z" fill="#ff9eb1" data-original="#FF9EB1" class="" style="fill:#FFFFFF" data-old_color="#ff9eb1"/><path d="m73.948 270.807-30.912-42.471-10.617 19.32c-8.961 16.306-7.691 36.321 3.257 51.364l12.973 17.824zm333.403 46.035 12.963-17.831c10.94-15.049 12.198-35.065 3.229-51.366l-10.628-19.314-30.888 42.488z" fill="#ff9eb1" data-original="#FF9EB1" class="" style="fill:#FFFFFF" data-old_color="#ff9eb1"/><path d="m400 433.5h-344c-11.046 0-20-8.954-20-20v-32c0-11.046 8.954-20 20-20h344c11.046 0 20 8.954 20 20v32c0 11.046-8.954 20-20 20z" fill="#fff" data-original="#FFF" class="active-path" data-old_color="#fff" style="fill:#000000"/><path d="m238 433.5c0 5.51-4.49 10-10 10s-10-4.49-10-10 4.49-10 10-10 10 4.49 10 10zm37.817-184.019c2.078 3.272 2.078 7.45 0 10.723l-39.376 62c-1.835 2.889-5.02 4.639-8.441 4.639-3.422 0-6.607-1.75-8.441-4.639l-39.376-62c-2.078-3.272-2.078-7.45 0-10.723l39.376-62c1.834-2.889 5.019-4.639 8.441-4.639s6.606 1.75 8.441 4.639zm-20.288 5.361-27.529-43.347-27.53 43.347 27.53 43.347zm-199.529 188.658c-16.569 0-30-13.431-30-30v-32c0-17.032 12.798-24.716 15.064-26.022l-2.212-35.103-11.26-15.47c-13.23-18.177-14.764-42.363-3.936-62.066l9.25-16.832-9.383-148.9c-14.192-4.264-24.394-17.837-23.464-33.596.967-16.404 14.187-29.781 30.579-30.928 19.26-1.348 35.362 13.939 35.362 32.917 0 8.603-3.312 16.445-8.725 22.326l25.077 43.886 25.293-43.945c-12.413-13.562-11.446-35.092 2.977-47.41 12.13-10.359 30.278-10.448 42.508-.207 14.397 12.056 15.684 33.252 3.81 46.947l18.901 30.884 25.231-33.414c-9.206-12.999-8.008-31.415 4.265-43.058 11.498-10.907 29.501-12.015 42.235-2.582 14.782 10.95 17.503 31.326 7.354 45.639l25.231 33.414 18.901-30.884c-11.876-13.698-10.585-34.897 3.815-46.951 12.232-10.239 30.38-10.146 42.508.216 14.42 12.32 15.383 33.847 2.972 47.406l25.293 43.945 25.077-43.886c-5.991-6.509-9.409-15.422-8.61-25.11 1.327-16.078 14.415-28.998 30.507-30.132 19.269-1.357 35.38 13.933 35.38 32.916 0 14.902-9.932 27.523-23.522 31.606l-9.388 148.977 9.213 16.742c10.839 19.697 9.318 43.883-3.902 62.068l-11.253 15.479-2.212 35.105c2.266 1.306 15.064 8.991 15.064 26.023v32c0 16.569-13.431 30-30 30h-126.642c-5.319 0-9.974-4.001-10.334-9.307-.395-5.822 4.237-10.693 9.976-10.693h127c5.5-.01 9.99-4.5 10-10v-32c-.01-5.5-4.5-9.99-10-10h-344c-5.5.01-9.99 4.5-10 10v32c.01 5.5 4.5 9.99 10 10h126.642c5.318 0 9.973 4 10.335 9.306.396 5.822-4.237 10.694-9.976 10.694zm255-398c0 7.168 5.832 13 13 13s13-5.832 13-13-5.832-13-13-13-13 5.832-13 13zm-17.89 69.631 44.732 59.24 24.309-42.541-31.14-54.102c-4.908 1.06-10.01.999-14.892-.194zm-78.11-69.631c0 7.168 5.832 13 13 13s13-5.832 13-13-5.832-13-13-13-13 5.832-13 13zm-96 0c0 7.168 5.832 13 13 13s13-5.832 13-13-5.832-13-13-13-13 5.832-13 13zm-25.151 86.33 24.309 42.542 44.732-59.24-23.009-37.598c-4.882 1.193-9.984 1.253-14.893.194zm-60.849-73.33c7.168 0 13-5.832 13-13s-5.832-13-13-13-13 5.832-13 13 5.832 13 13 13zm29.125 213.056-17.909-24.605-3.034 5.521c-7.061 12.848-6.048 28.81 2.579 40.663l3.707 5.093zm335.062 47.558-23.922-43.473c-1.869-3.396-1.607-7.565.672-10.701l29.194-40.159 8.808-139.77-64.257 112.45c-1.668 2.918-4.715 4.942-8.359 5.033-3.596.048-6.407-1.457-8.304-3.969l-92.053-121.908c-7.059 2.474-14.824 2.498-21.933.003l-92.053 121.906c-1.896 2.512-4.856 3.974-7.979 3.974-3.354-.214-7.016-2.12-8.684-5.039l-64.257-112.45 8.812 139.844 29.161 40.066c2.281 3.134 2.545 7.304.678 10.701l-23.9 43.49 2.041 32.387h334.295zm17.594-66.647-3.037-5.519-17.895 24.616 14.671 26.663 3.704-5.095c8.622-11.859 9.625-27.82 2.557-40.665zm21.219-206.967c0-7.168-5.832-13-13-13s-13 5.832-13 13 5.832 13 13 13 13-5.832 13-13z" data-original="#000000" class=""/></g></g> </svg>
