<svg id="Capa_1" enable-background="new 0 0 512.004 512.004" height="512" viewBox="0 0 512.004 512.004" width="512" xmlns="http://www.w3.org/2000/svg"><path d="m436.002 421.004h-15v-45c0-8.284-6.716-15-15-15h-15.096c-3.187-90.596-92.618-128.829-117.389-159.924-6.485-8.139-4.979-11.426-3.878-13.826 2.309-5.046 28.911-16.371 84.916 10.293 6.881 3.28 15.127.871 19.168-5.593l30-48c4.391-7.025 2.255-16.279-4.77-20.67l-110.053-68.783 11.363-34.847c3.437-10.54-5.381-21.059-16.382-19.5-112.392 16.056-222.879 82.442-222.879 195.85 0 75.062 54.046 121.358 59.545 165h-14.545c-8.284 0-15 6.716-15 15v45h-15c-8.284 0-15 6.716-15 15v61c0 8.284 6.716 15 15 15h360c8.284 0 15-6.716 15-15v-61c0-8.284-6.716-15-15-15zm-345-225c0-89.413 85.183-143.097 172.98-161.857l-7.241 22.207c-2.137 6.553.466 13.718 6.311 17.37l107.28 67.05-15.129 24.207c-47.147-19.709-75.683-15.163-88.975-10.337-11.329 4.115-19.804 11.257-23.862 20.11-6.829 14.9-4.243 30.047 7.687 45.021 28.936 36.319 107.477 66.85 110.837 141.23h-210.184c-4.486-54.55-59.704-97.241-59.704-165.001zm30 195h270v30h-270zm300 91h-330v-31h330z"/></svg>