<?xml version="1.0" encoding="iso-8859-1"?>
<!-- Generator: Adobe Illustrator 19.0.0, SVG Export Plug-In . SVG Version: 6.00 Build 0)  -->
<svg version="1.1" id="Capa_1" xmlns="http://www.w3.org/2000/svg" xmlns:xlink="http://www.w3.org/1999/xlink" x="0px" y="0px"
	 viewBox="0 0 512 512" style="enable-background:new 0 0 512 512;" xml:space="preserve">
<g>
	<g>
		<path d="M400.375,399.155v-61.619c0-21.705-11.558-40.76-28.84-51.34L345.9,115.566h42.624V0H123.476v115.566H166.1
			l-25.635,170.63c-17.282,10.581-28.84,29.635-28.84,51.34v61.619H71.411V512h369.178V399.155H400.375z M153.555,85.487V30.08
			h48.035v27.704h30.079V30.08h48.66v27.704h30.079V30.08h48.035v55.407h-17.064h-170.76H153.555z M339.793,277.38H172.206
			l24.311-161.814h118.965L339.793,277.38z M171.781,307.46H340.22c16.584,0,30.076,13.492,30.076,30.076v61.619h-228.59v-61.619
			h-0.001C141.705,320.952,155.197,307.46,171.781,307.46z M101.49,481.921v-52.686h10.135h288.749h10.135v52.686H101.49z"/>
	</g>
</g>
<g>
</g>
<g>
</g>
<g>
</g>
<g>
</g>
<g>
</g>
<g>
</g>
<g>
</g>
<g>
</g>
<g>
</g>
<g>
</g>
<g>
</g>
<g>
</g>
<g>
</g>
<g>
</g>
<g>
</g>
</svg>
